LWalking1_XZ.mot
version=1
datacolumns 20
datarows 46
range 0.950000 1.400000
inDegrees=yes
endheader
time	pelvis_tilt	pelvis_list	pelvis_rotation	hip_flexion_r	hip_adduction_r	hip_rotation_r	knee_angle_r	ankle_angle_r	hip_flexion_l	hip_adduction_l	hip_rotation_l	knee_angle_l	ankle_angle_l	pelvis_tx	pelvis_ty	pelvis_tz	lumbar_bending	lumbar_rotation	lumbar_extension
0.950000	14.508465	-3.235675	178.106048	29.367041	-6.774957	-3.463590	-57.583260	-4.165068	19.346709	6.731694	-5.996921	-12.149226	2.958043	1.806260	0.966336	0.034673	-0.000000	-0.000000	0.000000
0.960000	14.382382	-2.833668	178.144562	30.551852	-6.311934	-3.645803	-56.317774	-3.042789	18.308379	6.364608	-6.464928	-11.767695	3.040864	1.796138	0.967679	0.034666	-0.000000	-0.000000	0.000000
0.970000	14.220104	-2.494389	178.252685	31.525015	-5.959389	-3.802264	-54.665569	-2.007095	17.240378	6.082498	-6.873658	-11.389153	3.148771	1.785943	0.968820	0.034531	-0.000000	-0.000000	0.000000
0.980000	14.025956	-2.213242	178.432664	32.299222	-5.708570	-3.926730	-52.672901	-1.114614	16.136881	5.878823	-7.184460	-10.990062	3.280022	1.775631	0.969712	0.034262	-0.000000	-0.000000	0.000000
0.990000	13.806355	-1.982620	178.667841	32.897580	-5.538520	-4.004219	-50.386915	-0.408341	14.991950	5.740972	-7.385046	-10.545849	3.438765	1.765162	0.970289	0.033875	-0.000000	-0.000000	0.000000
1.000000	13.568870	-1.791166	178.928931	33.351878	-5.418998	-4.015377	-47.852419	0.100459	13.800729	5.650787	-7.488690	-10.037375	3.640096	1.754512	0.970477	0.033399	-0.000000	-0.000000	0.000000
1.010000	13.320124	-1.623939	179.183723	33.697499	-5.315995	-3.945865	-45.109459	0.430554	12.559655	5.585697	-7.524556	-9.455865	3.910736	1.743676	0.970211	0.032866	-0.000000	-0.000000	0.000000
1.020000	13.063772	-1.465531	179.407753	33.965934	-5.200246	-3.795039	-42.191954	0.613479	11.266220	5.522989	-7.524055	-8.804662	4.281916	1.732669	0.969454	0.032302	-0.000000	-0.000000	0.000000
1.030000	12.799593	-1.306511	179.592277	34.178032	-5.056682	-3.575927	-39.128367	0.675741	9.919269	5.446980	-7.509339	-8.098414	4.774338	1.721510	0.968205	0.031719	-0.000000	-0.000000	0.000000
1.040000	12.524387	-1.149961	179.745846	34.342008	-4.890385	-3.306516	-35.945212	0.633872	8.520576	5.355176	-7.488289	-7.360721	5.381409	1.710219	0.966503	0.031109	-0.000000	-0.000000	0.000000
1.050000	12.234292	-1.012779	179.888503	34.457383	-4.724880	-3.000180	-32.672082	0.503442	7.076327	5.259141	-7.457067	-6.619375	6.061193	1.698806	0.964420	0.030440	-0.000000	-0.000000	0.000000
1.060000	11.927738	-0.918657	180.041094	34.522083	-4.591194	-2.662533	-29.344275	0.311302	5.597034	5.178051	-7.408331	-5.899039	6.745531	1.687271	0.962045	0.029672	-0.000000	-0.000000	0.000000
1.070000	11.607937	-0.887210	180.215226	34.539064	-4.513795	-2.295146	-26.001685	0.098881	4.096282	5.129007	-7.340698	-5.214469	7.362895	1.675606	0.959476	0.028774	-0.000000	-0.000000	0.000000
1.080000	11.284155	-0.927100	180.409264	34.520866	-4.503022	-1.901474	-22.687186	-0.086649	2.590271	5.121347	-7.264193	-4.568213	7.861359	1.663797	0.956802	0.027731	-0.000000	-0.000000	0.000000
1.090000	10.971142	-1.034019	180.610717	34.490098	-4.554262	-1.487362	-19.445789	-0.208351	1.098120	5.155129	-7.198147	-3.953327	8.218479	1.651850	0.954090	0.026550	-0.000000	-0.000000	0.000000
1.100000	10.685669	-1.190225	180.801884	34.473996	-4.648736	-1.053003	-16.323843	-0.253617	-0.359217	5.219732	-7.162112	-3.359562	8.435603	1.639788	0.951384	0.025256	-0.000000	-0.000000	0.000000
1.110000	10.443883	-1.366263	180.967266	34.498688	-4.756983	-0.592094	-13.369838	-0.233336	-1.758409	5.293808	-7.166602	-2.782422	8.532990	1.627653	0.948701	0.023881	-4.404427	-2.253092	7.413733
1.120000	10.262251	-1.526714	181.100158	34.588044	-4.846405	-0.107786	-10.637043	-0.164198	-3.070130	5.349519	-7.210575	-2.232556	8.556180	1.615487	0.946043	0.022463	-4.258651	-2.418839	7.610167
1.130000	10.155098	-1.638881	181.203902	34.760512	-4.889360	0.378387	-8.184603	-0.054705	-4.261480	5.360191	-7.284632	-1.739638	8.572559	1.603317	0.943404	0.021039	-4.139921	-2.437609	7.857254
1.140000	10.126992	-1.680642	181.288464	35.020977	-4.868971	0.838179	-6.074138	0.092132	-5.306762	5.307762	-7.375184	-1.347447	8.645509	1.591152	0.940780	0.019640	-4.189415	-2.447338	7.885271
1.150000	10.169222	-1.643557	181.365491	35.356773	-4.780502	1.249407	-4.363438	0.272769	-6.196195	5.186190	-7.467052	-1.102620	8.810093	1.578972	0.938169	0.018293	-4.232054	-2.371093	7.980262
1.160000	10.264050	-1.530849	181.443315	35.742771	-4.627601	1.597309	-3.100782	0.484447	-6.936590	4.999844	-7.544153	-1.042396	9.070915	1.566725	0.935577	0.017011	-4.269200	-2.212554	8.130434
1.170000	10.392045	-1.352850	181.525928	36.150363	-4.417941	1.871305	-2.319547	0.725015	-7.546165	4.758937	-7.589324	-1.186325	9.411736	1.554340	0.933017	0.015798	-4.303203	-1.987306	8.321421
1.180000	10.537304	-1.122187	181.615658	36.553725	-4.160816	2.065536	-2.030595	0.980634	-8.047694	4.474279	-7.584689	-1.534390	9.797648	1.541740	0.930510	0.014640	-4.340233	-1.717522	8.541344
1.190000	10.688817	-0.849995	181.713211	36.931897	-3.863567	2.183104	-2.213972	1.208379	-8.463109	4.152604	-7.513949	-2.071007	10.170485	1.528861	0.928094	0.013511	-4.387248	-1.423275	8.782453
1.200000	10.839813	-0.544330	181.815471	37.268376	-3.528116	2.236276	-2.814018	1.333763	-8.809335	3.794452	-7.365958	-2.773623	10.455179	1.515664	0.925818	0.012374	-4.445999	-1.117630	9.041185
1.210000	10.987185	-0.210431	181.916071	37.549819	-3.151971	2.238953	-3.741257	1.272157	-9.094466	3.395523	-7.136423	-3.623061	10.584127	1.502136	0.923746	0.011183	-4.511678	-0.806643	9.317884
1.220000	11.130360	0.148132	182.007829	37.764771	-2.732588	2.199333	-4.883370	0.956197	-9.316465	2.950427	-6.828118	-4.610705	10.516720	1.488282	0.921942	0.009901	-4.576223	-0.490907	9.615457
1.230000	11.268745	0.527253	182.084059	37.902750	-2.271815	2.120019	-6.124045	0.351193	-9.465620	2.457162	-6.451606	-5.740130	10.233902	1.474121	0.920465	0.008503	-4.632497	-0.168267	9.935958
1.240000	11.399851	0.920841	182.139090	37.954682	-1.777962	2.001708	-7.363901	-0.535004	-9.528020	1.918703	-6.023882	-7.025199	9.721974	1.459686	0.919363	0.006981	-4.677192	0.163441	10.277424
1.250000	11.520004	1.322105	182.168104	37.915122	-1.263745	1.845944	-8.536052	-1.643163	-9.487361	1.340143	-5.564201	-8.485997	8.961535	1.445015	0.918677	0.005341	-4.710087	0.505544	10.633719
1.260000	11.626634	1.725584	182.166904	37.784663	-0.742498	1.657152	-9.610736	-2.862963	-9.325228	0.725284	-5.089549	-10.143674	7.923825	1.430147	0.918437	0.003607	-4.730068	0.857998	10.996834
1.270000	11.720131	2.126735	182.133350	37.570954	-0.226747	1.444315	-10.589382	-4.048220	-9.020870	0.076767	-4.610573	-12.016342	6.573860	1.415119	0.918666	0.001808	-4.732111	1.217099	11.359119
1.280000	11.804381	2.519927	182.069309	37.288248	0.272047	1.221676	-11.493128	-5.046318	-8.551591	-0.601107	-4.128785	-14.116997	4.881325	1.399981	0.919367	-0.000026	-4.707535	1.573495	11.713976
1.290000	11.886128	2.898814	181.982387	36.955423	0.745384	1.006238	-12.350660	-5.732799	-7.894094	-1.301352	-3.638263	-16.453619	2.840781	1.384793	0.920522	-0.001871	-4.648685	1.914882	12.055480
1.300000	11.972612	3.259527	181.887245	36.591944	1.189914	0.811737	-13.188409	-6.039221	-7.026944	-2.015882	-3.134688	-19.030586	0.489807	1.369627	0.922085	-0.003711	-4.556124	2.232459	12.377359
1.310000	12.067949	3.603677	181.802752	36.212898	1.609666	0.644100	-14.024591	-5.963479	-5.934549	-2.737400	-2.624656	-21.849584	-2.086541	1.354565	0.923986	-0.005525	-4.440799	2.525926	12.672080
1.320000	12.170408	3.939197	181.744988	35.824787	2.018331	0.502133	-14.865767	-5.558798	-4.611341	-3.461066	-2.124090	-24.908176	-4.765509	1.339686	0.926133	-0.007295	-4.318545	2.803855	12.931131
1.330000	12.271557	4.277860	181.721847	35.421980	2.437544	0.380848	-15.703504	-4.911169	-3.064783	-4.184595	-1.649182	-28.195476	-7.405694	1.325056	0.928425	-0.009001	-4.202476	3.078982	13.146017
1.340000	12.357662	4.629191	181.730029	34.985240	2.889955	0.275117	-16.511790	-4.116702	-1.317273	-4.904425	-1.213369	-31.685919	-9.861131	1.310717	0.930771	-0.010628	-4.095686	3.360215	13.309614
1.350000	12.413706	4.992612	181.753845	34.484595	3.389145	0.182917	-17.247815	-3.264423	0.593687	-5.608947	-0.832800	-35.332561	-11.988922	1.296683	0.933105	-0.012158	-3.985886	3.644817	13.418270
1.360000	12.428776	5.351966	181.770498	33.886133	3.928523	0.104799	-17.856850	-2.427599	2.619441	-6.273444	-0.524765	-39.063352	-13.663016	1.282944	0.935403	-0.013576	-3.848456	3.914618	13.473743
1.370000	12.400502	5.676560	181.761239	33.160286	4.475106	0.038633	-18.280547	-1.661957	4.709218	-6.860449	-0.293490	-42.784968	-14.793581	1.269471	0.937677	-0.014861	-3.658146	4.138737	13.483326
1.380000	12.336505	5.928669	181.719879	32.290003	4.974232	-0.026051	-18.468847	-1.004521	6.820438	-7.325690	-0.123871	-46.393316	-15.344520	1.256233	0.939970	-0.016001	-3.400344	4.281368	13.457523
1.390000	12.251714	6.073406	181.653216	31.276275	5.364213	-0.110038	-18.393844	-0.471082	8.924096	-7.627793	0.007231	-49.785425	-15.345020	1.243199	0.942326	-0.016991	-3.074755	4.310465	13.405851
1.400000	12.162304	6.087778	181.574159	30.138027	5.595927	-0.240441	-18.060029	-0.055899	11.002729	-7.739886	0.113977	-52.870520	-14.885424	1.230348	0.944767	-0.017837	-2.690796	4.205199	13.332510
